<svg width="360" height="360" viewBox="0 0 360 360" fill="none" xmlns="http://www.w3.org/2000/svg">
<g clip-path="url(#clip0_64_853)">
<rect width="360" height="360" fill="#9DA2CB"/>
<path d="M288 95C316.591 94.4631 339.5 109.5 375 111C413.963 112.646 433.29 158.806 455.323 190.983C490.693 242.637 530.627 304.167 531.004 317.037C534.576 439.098 308.983 405.851 188.096 388.589C88.5707 374.378 -2.03394 360.94 -1.6548 359.298C-1.20557 357.352 -9.61125 330.443 -17.5413 305.895C-22.95 289.153 -19.9909 270.81 -9.45579 256.718C-7.79878 254.502 -6.3674 252.123 -4.86406 249.8C-3.58962 247.83 -2.20464 246.028 -0.68752 244.359C20.6222 220.909 58.9381 229.837 90.5597 227.824C100.901 227.165 111.766 225.498 123.23 222.895C154.038 215.9 166.854 202.165 172.656 195.511C179.469 187.7 182.528 182.451 186 175.5C187.512 172.473 189.973 164.348 192.287 156.077C196.316 141.68 203.957 128.576 214.908 118.399C222.822 111.043 232.123 105.282 242.546 102.434C254.623 99.135 271.93 95.3018 288 95Z" fill="#A9AED7"/>
<path d="M290.5 137.5C324.21 144.654 345.706 141.772 366 132.5C407.008 113.765 445.541 165.802 478.64 196.414C522.98 237.422 570.896 284.148 574 296C604.939 414.129 377.648 432.482 255.976 442.856C155.805 451.398 64.5 458.686 64.5 457C64.5 454.2 36.5 407.5 22.5 384.5C27.5146 391.996 31.2561 396.404 33.8014 397.169C61.5862 405.526 38.9154 340.849 62.0898 323.391C69.8944 317.512 81.0525 311.613 90.301 308.459C110.224 301.665 131.724 296.588 155.5 296C184.866 295.274 196.929 265.082 199 256.5C202.5 242 197.857 266 204.5 235C205.167 231.886 205.744 228.982 206.243 226.274C210.136 205.112 215.514 182.139 227.575 164.321C229.522 161.444 231.476 158.558 233.97 156.14C242.104 148.254 263.668 131.805 290.5 137.5Z" fill="#B6BBE0"/>
</g>
<defs>
<clipPath id="clip0_64_853">
<rect width="360" height="360" fill="white"/>
</clipPath>
</defs>
</svg>
